<svg width="80" height="22" viewBox="0 0 80 22" fill="none" xmlns="http://www.w3.org/2000/svg">
<path d="M57.4101 16.9495C57.4098 17.8044 57.663 18.6402 58.1377 19.3512C58.6124 20.0623 59.2874 20.6165 60.0771 20.9439C60.8669 21.2714 61.736 21.3572 62.5746 21.1906C63.4131 21.024 64.1834 20.6125 64.7881 20.0081C65.3927 19.4037 65.8046 18.6336 65.9715 17.7951C66.1384 16.9566 66.0529 16.0874 65.7258 15.2975C65.3987 14.5077 64.8447 13.8325 64.1339 13.3575C63.4231 12.8825 62.5873 12.6289 61.7324 12.6289C60.5866 12.6299 59.4881 13.0853 58.6777 13.8953C57.8674 14.7053 57.4115 15.8037 57.4101 16.9495ZM13.3516 12.6289C14.2061 12.6293 15.0412 12.883 15.7515 13.3579C16.4618 13.8329 17.0153 14.5078 17.342 15.2973C17.6688 16.0868 17.7541 16.9554 17.5872 17.7934C17.4203 18.6314 17.0087 19.4011 16.4044 20.0051C15.8 20.6092 15.0302 21.0205 14.1921 21.1871C13.3541 21.3537 12.4855 21.268 11.6961 20.9409C10.9067 20.6139 10.2321 20.0601 9.7574 19.3496C9.28273 18.6392 9.02938 17.8039 9.02938 16.9495C9.03076 15.804 9.4864 14.7059 10.2964 13.8959C11.1063 13.086 12.2044 12.6303 13.3499 12.6289H13.3516ZM0 0.174144H11.7112L9.3411 8.75597L25.3624 0H35.3513L35.5707 6.03932L41.1433 8.60969L43.1878 6.09505H45.9079L46.4582 8.88136C70.4135 6.61748 80.0001 13.9611 80.0001 13.9611C80.0001 13.9611 78.6906 14.8319 75.4846 15.4222C74.8089 15.9986 74.8472 17.9369 74.8472 17.9369H79.0615V20.7232H70.006V15.9377C69.6856 15.9499 69.231 16.0091 68.7765 16.0195C68.642 15.0004 68.288 14.0226 67.739 13.1536C67.19 12.2845 66.4589 11.5449 65.5963 10.9858C64.7337 10.4267 63.7601 10.0613 62.7426 9.91495C61.7252 9.7686 60.688 9.84471 59.7028 10.138C58.7176 10.4314 57.8078 10.9349 57.036 11.614C56.2643 12.2931 55.6491 13.1315 55.2328 14.0714C54.8165 15.0113 54.6091 16.0303 54.6248 17.0581C54.6405 18.0859 54.879 19.0981 55.3239 20.0248H19.7567C20.2179 19.0628 20.4565 18.0092 20.455 16.9423C20.4534 15.8754 20.2116 14.8225 19.7476 13.8618C19.2836 12.901 18.6092 12.0571 17.7745 11.3926C16.9398 10.7281 15.9661 10.2601 14.9258 10.0232C13.8855 9.78637 12.8053 9.78678 11.7652 10.0244C10.725 10.2621 9.75178 10.7309 8.91758 11.396C8.08337 12.0612 7.40963 12.9056 6.94634 13.8667C6.48304 14.8277 6.24208 15.8808 6.24133 16.9477C6.24133 17.1637 6.25178 17.3761 6.27093 17.5868H0.00174148L0 0.174144Z" fill="white"/>
</svg>
