<svg width="895" height="891" viewBox="0 0 895 891" fill="none" xmlns="http://www.w3.org/2000/svg">
<g clip-path="url(#clip0_1412_1291)">
<path d="M-2.79142 0.994617C-2.17478 0.994617 -1.85274 1.18435 -1.84774 1.75605V2.5H-2.1598V2.32025C-2.4494 2.44258 -2.75647 2.54743 -3.14342 2.54743C-3.60028 2.54743 -3.83495 2.38766 -3.83495 2.04814C-3.83495 1.66617 -3.42802 1.53636 -2.95119 1.53636C-2.67408 1.53636 -2.40196 1.58379 -2.1598 1.65369C-2.16729 1.29919 -2.61417 1.26424 -2.82137 1.26424C-3.02359 1.26424 -3.26825 1.28421 -3.59778 1.39156L-3.71262 1.14441C-3.40805 1.04954 -3.12595 0.994617 -2.79142 0.994617ZM-3.04855 2.27781C-2.80639 2.27781 -2.43192 2.17296 -2.1598 2.0706V1.91333C-2.36452 1.85341 -2.61167 1.79849 -2.93122 1.79849C-3.27074 1.79849 -3.49792 1.86839 -3.49792 2.04814C-3.49792 2.24037 -3.31818 2.27781 -3.04855 2.27781ZM-1.54028 2.0057H-1.20326C-1.18079 2.20541 -0.99605 2.2853 -0.459305 2.2853C0.0699505 2.2853 0.154831 2.22039 0.154831 2.07809C0.154831 1.94328 0.072447 1.92331 -0.529207 1.87837C-1.14584 1.83344 -1.47038 1.786 -1.47038 1.45147C-1.47038 1.09198 -1.05347 0.994617 -0.524214 0.994617C0.0025453 0.994617 0.409473 1.0745 0.441927 1.46645H0.104901C0.082433 1.2942 -0.0973142 1.25675 -0.559165 1.25675C-1.01353 1.25675 -1.13336 1.32915 -1.13336 1.4315C-1.13336 1.53885 -1.04598 1.56631 -0.471788 1.61624C0.0974119 1.66617 0.491857 1.67117 0.491857 2.06311C0.491857 2.45257 0.132363 2.54993 -0.43434 2.54993C-1.01103 2.54993 -1.51782 2.47004 -1.54028 2.0057ZM2.4737 1.29669V0.502809H2.78576V2.5H2.4737V2.24785C2.32641 2.44008 2.06427 2.54993 1.6923 2.54993C1.17303 2.54993 0.763604 2.30028 0.763604 1.77352C0.763604 1.24427 1.17303 0.994617 1.6923 0.994617C2.06427 0.994617 2.32641 1.10446 2.4737 1.29669ZM1.77718 2.27282C2.22155 2.27282 2.4737 2.08059 2.4737 1.77352C2.4737 1.46645 2.22155 1.27422 1.77718 1.27422C1.33031 1.27422 1.10063 1.46645 1.10063 1.77352C1.10063 2.08059 1.33031 2.27282 1.77718 2.27282Z" fill="white"/>
</g>
<defs>
<clipPath id="clip0_1412_1291">
<rect width="895" height="891" fill="white"/>
</clipPath>
</defs>
</svg>
