<svg width="895" height="891" viewBox="0 0 895 891" fill="none" xmlns="http://www.w3.org/2000/svg">
<path d="M23.936 12.02C25.824 13.012 27.136 14.708 27.136 17.3C27.136 21.108 24.928 23.636 19.776 23.636H0V1.14H19.616C24.832 1.14 26.432 3.892 26.432 6.836C26.432 8.948 25.568 10.772 23.936 12.02ZM18.176 4.66H4.096V10.58H18.176C20.48 10.58 22.08 10.58 22.08 7.636C22.08 4.66 20.48 4.66 18.176 4.66ZM4.096 20.116H18.88C21.152 20.116 22.752 20.116 22.752 17.044C22.752 13.972 21.152 13.972 18.88 13.972H4.096V20.116Z" fill="white"/>
<path d="M31.125 1.14H35.221V23.636H31.125V1.14Z" fill="white"/>
<path d="M75.1575 1.14V23.636H71.0615V4.884L59.6695 23.636H55.9255L44.5335 4.884V23.636H40.4375V1.14H46.8695L57.8135 18.932L68.7255 1.14H75.1575Z" fill="white"/>
<path d="M109.787 23.636H105.147L102.363 18.772H86.011L83.227 23.636H78.555L91.579 1.14H96.763L109.787 23.636ZM94.171 4.532L88.027 15.252H100.315L94.171 4.532Z" fill="white"/>
<path d="M111.211 16.34H115.627C115.627 19.124 118.123 20.756 126.411 20.756C133.003 20.756 135.435 19.54 135.435 17.3C135.435 14.9 133.867 14.516 125.451 14.004C116.011 13.46 112.107 11.924 112.107 6.996C112.107 2.1 117.259 0.5 125.259 0.5C133.611 0.5 138.827 2.996 138.859 8.084H134.475C134.475 5.172 131.723 4.02 124.715 4.02C118.155 4.02 116.491 5.108 116.491 7.188C116.491 9.364 118.155 9.94 125.611 10.452C134.347 11.06 139.819 11.476 139.819 17.076C139.819 22.932 133.867 24.276 126.443 24.276C117.259 24.276 111.531 22.356 111.211 16.34Z" fill="white"/>
<path d="M172.818 23.636H168.178L165.394 18.772H149.042L146.258 23.636H141.586L154.61 1.14H159.794L172.818 23.636ZM157.202 4.532L151.058 15.252H163.346L157.202 4.532Z" fill="white"/>
<path d="M196.986 1.14H203.482L190.554 11.252L203.482 23.636H197.69L187.354 13.78L180.346 19.252V23.636H176.25V1.14H180.346V14.164L196.986 1.14Z" fill="white"/>
<path d="M234.106 1.14V4.788H222.394V23.636H218.33V4.788H206.586V1.14H234.106Z" fill="white"/>
<path d="M238.156 1.14H242.252V23.636H238.156V1.14Z" fill="white"/>
</svg>
