<svg width="769" height="533" viewBox="0 0 769 533" fill="none" xmlns="http://www.w3.org/2000/svg">
<path d="M558.617 359.97C557.253 353.796 556.446 346.761 552.245 341.088C548.882 336.547 544.869 332.456 540.892 328.415C538.458 325.943 537.244 326.31 535.349 329.32C534.393 330.839 533.632 332.49 532.588 333.941C530.628 336.665 530.714 339.084 533 341.618C538.608 347.836 544.016 354.239 549.736 360.35C551.073 361.779 553.24 362.644 555.187 363.234C557.523 363.94 558.583 362.9 558.617 359.97ZM605.753 280.365C603.522 280.517 601.815 280.468 600.179 280.787C598.13 281.186 596.15 281.923 594.123 282.451C586.878 284.339 579.615 286.16 572.381 288.09C569.219 288.934 568.259 290.43 569.189 293.322C570.931 298.739 572.757 304.135 574.775 309.454C576.033 312.769 577.707 313.255 580.642 311.153C587.973 305.906 594.883 300.158 600.183 292.757C602.627 289.344 604.694 285.7 605.753 280.365ZM609.252 300.864C609.878 303.086 610.269 304.99 610.951 306.784C612.203 310.077 612.768 310.285 615.922 308.903C624.261 305.249 631.364 299.854 637.578 293.272C640.564 290.109 640.676 288.237 638.219 284.528C636.158 281.417 633.877 278.45 631.79 275.356C626.573 267.622 625.043 270.732 622.116 276.015C618.718 282.148 615.377 288.314 612.098 294.512C610.999 296.588 610.166 298.804 609.252 300.864ZM748.444 259.647C747.928 258.234 747.686 256.846 746.98 255.763C743.468 250.377 739.968 244.972 736.189 239.775C733.859 236.571 731.915 236.145 728.434 238.298C722.082 242.227 715.941 246.499 709.774 250.719C708.071 251.884 707.843 253.654 708.662 255.534C712.251 263.764 715.75 272.034 719.469 280.204C721.104 283.794 722.631 284.222 726.271 282.235C734.542 277.719 741.616 271.806 746.655 263.719C747.423 262.488 747.843 261.04 748.444 259.647ZM250.19 205.869C250.137 212.382 250.587 213.129 255.391 214.867C269.916 220.118 282.172 228.669 292.436 240.152C293.129 240.928 293.807 241.776 294.66 242.334C295.796 243.078 297.282 243.029 297.647 241.61C298.694 237.543 301.459 233.584 298.736 229.143C297.961 227.878 297.496 226.426 296.805 225.104C292.784 217.417 288.797 209.713 284.681 202.079C281.919 196.958 279.147 191.827 276.033 186.92C273.689 183.227 272.089 183.173 268.081 184.803C263.929 186.491 261.132 189.942 257.551 192.336C252.128 195.962 250.495 201.297 250.19 205.869ZM668.419 273.466C667.288 274.183 666.159 274.673 665.321 275.468C661.083 279.485 657.006 283.673 652.708 287.622C648.881 291.138 648.808 295.124 650.72 299.48C653.305 305.371 655.882 311.267 658.614 317.09C660.585 321.293 662.719 325.425 664.942 329.501C666.327 332.04 667.577 332.443 670.084 331.019C676.077 327.613 681.952 324.019 686.718 318.892C688.874 316.572 689.599 314.265 688.172 311.17C685.857 306.145 683.907 300.954 681.747 295.856C679.646 290.895 677.547 285.932 675.31 281.032C673.922 277.995 671.882 275.43 668.419 273.466ZM583.339 347.532C583.362 357.511 589.104 364.464 595.176 371.169C595.978 372.055 598.007 372.512 599.231 372.209C604.301 370.959 609.381 369.609 614.265 367.782C619.19 365.938 623.619 363.099 627.233 359.143C629.676 356.47 630.043 355.012 628.207 351.946C626.289 348.743 624.236 345.589 621.935 342.654C618.503 338.28 615.102 333.948 613.467 328.505C612.765 326.169 611.035 325.046 608.639 325.495C602.47 326.651 596.309 327.864 590.18 329.216C588.225 329.646 586.625 330.834 586.19 333.037C585.238 337.868 584.29 342.7 583.339 347.532ZM596.265 191.519C596.467 192.289 596.653 193.332 597.013 194.309C601.312 205.963 605.615 217.614 609.969 229.246C611.174 232.466 612.466 235.659 613.872 238.796C615.088 241.506 616.225 241.952 618.786 241.065C619.348 240.87 619.88 240.572 620.398 240.275C628.178 235.813 635.953 231.34 643.732 226.877C645.238 226.013 645.749 224.682 645.397 223.067C645.11 221.756 644.688 220.465 644.223 219.203C641.693 212.328 639.14 205.461 636.576 198.597C634.324 192.567 632.116 186.52 629.753 180.534C628.515 177.402 627.808 177.125 624.611 178.152C621.479 179.158 618.396 180.325 615.302 181.449C610.096 183.34 604.881 185.208 599.705 187.18C597.879 187.877 596.036 188.749 596.265 191.519ZM684.648 64.6876C684.465 62.1233 684.39 60.4777 684.223 58.8411C683.206 48.8556 681.89 38.9395 677.647 29.6756C675.984 26.0443 674.308 25.4657 671.086 27.734C669.011 29.1943 667.063 30.8327 665.068 32.4046C657.557 38.3223 650.108 44.32 642.513 50.1287C639.337 52.5581 638.379 55.3932 639.586 59.1326C640.457 61.8309 641.206 64.5689 642.014 67.2879C644.102 74.3087 646.08 81.3654 648.324 88.3358C649.676 92.5322 651.037 92.9704 654.992 91.0845C663.536 87.0104 671.126 81.423 678.924 76.1405C683.478 73.0553 686.137 69.4689 684.648 64.6876ZM665.31 143.65C664.748 134.217 662.95 126.459 660.538 118.897C658.636 112.928 656.252 107.07 653.576 101.403C651.57 97.1542 650.078 96.9904 646.262 99.7554C637.044 106.434 627.944 113.276 618.706 119.926C615.5 122.233 614.362 124.974 615.286 128.835C616.922 135.683 618.06 142.664 619.971 149.43C621.795 155.891 624.207 162.2 626.622 168.475C627.809 171.557 629.41 171.859 632.239 170.14C633.261 169.519 634.206 168.77 635.192 168.087C644.175 161.863 653.064 155.497 662.198 149.501C665.176 147.546 665.48 145.164 665.31 143.65ZM607.52 247.869C607.792 247.574 608.064 247.278 608.336 246.982C606.799 243.004 603.849 239.959 600.651 237.4C585.232 225.059 569.69 212.871 554.094 200.754C550.647 198.076 546.576 196.463 542.241 195.592C537.512 194.643 536.508 195.482 536.777 200.194C537.118 206.171 537.471 212.152 537.643 218.136C537.724 220.967 538.521 223.267 540.404 225.471C543.081 228.605 545.362 232.075 548.279 236.033C544.828 236.959 542.164 237.745 539.464 238.377C537.262 238.892 536.249 240.16 535.948 242.403C535.353 246.845 534.561 251.26 533.807 255.678C531.908 266.806 528.333 277.425 524.082 287.846C523.318 289.722 522.798 291.699 521.82 294.676C524.157 294.085 525.549 293.931 526.771 293.392C538.431 288.248 550.178 283.393 562.871 281.337C564.492 281.075 566.098 280.65 567.67 280.167C570.348 279.345 570.692 278.725 570.15 275.888C569.701 273.535 569.018 271.218 568.706 268.85C568.166 264.739 566.667 261.09 564.298 257.697C560.356 252.052 556.516 246.334 552.704 240.599C550.687 237.563 551.017 236.086 554.264 234.642C557.947 233.004 561.669 231.274 565.553 230.301C573.652 228.271 581.692 228.481 588.836 233.484C593.478 236.736 597.836 240.395 602.324 243.869C604.052 245.207 605.787 246.536 607.52 247.869ZM670.578 268.405C672.021 268.049 672.838 268.044 673.425 267.673C680.892 262.961 688.384 258.283 695.704 253.352C696.836 252.59 697.758 250.582 697.713 249.185C697.585 245.177 697.27 241.104 696.368 237.21C694.883 230.799 692.912 224.5 691.082 218.172C689.797 213.731 690.763 209.937 693.939 206.588C697.132 203.221 700.173 199.709 703.369 196.344C706.153 193.412 709.062 190.597 711.913 187.728C713.977 185.651 714.647 183.532 713.582 180.455C710.354 171.124 707.648 161.614 704.491 152.258C702.629 146.738 700.419 141.324 698.127 135.964C696.863 133.008 695.482 132.605 692.909 134.338C686.329 138.769 679.862 143.369 673.355 147.909C671.434 149.25 670.702 151.088 671.179 153.385C671.879 156.756 672.385 160.185 673.341 163.483C676.05 172.828 679.209 182.047 681.703 191.446C684.979 203.789 684.524 210.299 672.035 217.535C668.284 219.709 664.514 221.861 660.876 224.216C656.504 227.047 655.952 228.855 657.648 233.62C660.259 240.954 662.87 248.289 665.562 255.594C667.101 259.77 668.803 263.888 670.578 268.405ZM565.884 142.783C563.513 143.254 561.948 143.577 560.378 143.874C551.709 145.509 542.997 146.944 534.386 148.839C528.666 150.096 528.158 152.053 531.601 156.916C534.452 160.942 537.332 164.948 540.184 168.973C544.161 174.585 547.938 180.35 552.156 185.771C554.899 189.298 558.171 192.438 561.395 195.555C564.706 198.756 568.66 199.569 573.013 197.789C576.199 196.487 579.408 195.234 582.544 193.818C585.2 192.619 585.954 191.294 585.33 188.45C584.563 184.947 583.806 181.381 582.464 178.079C578.523 168.383 574.326 158.791 570.164 149.186C567.922 144.012 568.267 143.2 573.457 140.591C576.649 138.986 579.986 137.423 582.705 135.174C587.768 130.984 593.376 128.083 599.583 126.115C604.032 124.705 604.77 123.539 603.994 118.832C603.435 115.443 602.721 112.032 601.608 108.791C599.036 101.298 596.429 93.7963 593.359 86.5003C590.921 80.7104 589.495 80.4 583.612 82.6502C582.499 83.0749 581.43 83.6211 580.362 84.1537C570.468 89.0933 561.562 95.882 551.007 99.6204C547.732 100.779 547.585 101.901 549.033 105.209C553.112 114.519 557.197 123.827 561.322 133.117C562.643 136.093 564.097 139.009 565.884 142.783ZM324.123 263.515C325.572 263.198 326.167 263.152 326.693 262.934C327.659 262.534 328.627 262.104 329.519 261.562C341.452 254.31 352.768 246.222 363.057 236.743C368.877 231.382 368.79 231.451 365.226 224.274C362.299 218.378 359.584 212.373 356.924 206.351C355.692 203.562 355.053 200.911 357.742 198.131C367.417 188.132 378.128 179.589 390.774 173.665C393.61 172.337 394.837 170.47 394.718 167.365C394.444 160.252 392.885 153.381 390.653 146.696C386.487 134.211 378.595 124.039 369.85 114.482C366.678 111.016 366.265 111.038 362.074 112.777C354.22 116.035 347.752 121.384 341.126 126.543C336.529 130.121 331.7 133.434 326.773 136.546C323.393 138.679 322.044 138.146 319.685 134.817C319.167 134.086 318.676 133.318 318.302 132.506C314.989 125.308 311.693 118.1 308.412 110.886C305.686 104.892 303.078 98.8421 300.244 92.8993C298.493 89.2274 297.954 89.0646 293.86 89.9517C289.299 90.9396 284.867 92.3144 281.059 95.163C274.586 100.006 268.085 104.813 261.686 109.753C258.133 112.495 254.698 115.399 251.336 118.373C248.721 120.685 247.95 123.305 249.733 126.769C253.016 133.15 255.88 139.746 258.971 146.226C260.515 149.46 261.854 152.86 263.87 155.781C266.122 159.043 267.99 162.231 268.606 166.261C269.236 170.397 270.781 174.293 274.545 177.406C275.97 176.214 277.473 175.236 278.622 173.942C281.704 170.472 284.619 166.851 287.631 163.316C294.953 154.728 303.511 147.86 314.48 144.514C323.039 141.903 323.268 142.45 326.206 150.175C329.548 158.964 333.434 167.597 337.748 175.955C341.584 183.387 346.323 190.354 350.679 197.517C352.757 200.935 352.328 202.116 348.57 203.428C347.167 203.918 345.665 204.338 344.47 205.168C339.675 208.497 335.044 212.065 330.23 215.366C327.045 217.551 326.008 220.341 326.102 224.162C326.38 235.403 326.371 246.649 324.169 257.768C323.837 259.444 324.123 261.242 324.123 263.515ZM360.828 414.906C365.556 412.885 370.266 410.821 375.014 408.849C404.204 396.727 431.923 381.996 456.846 362.382C475.731 347.519 492.017 330.202 504.714 309.747C511.514 298.792 516.938 287.121 521.144 274.86C532.109 242.899 531.866 210.343 526.507 177.551C525.013 168.407 522.879 159.308 520.258 150.418C508.63 110.974 486.295 79.3841 451.31 57.0775C438.765 49.0788 425.881 41.7359 412.174 36.0225C385.989 25.1085 358.856 20.3534 330.412 23.9101C313.979 25.9642 297.941 29.6217 282.23 34.6072C265.023 40.0669 250.533 50.0649 238.172 63.1445C225.625 76.4185 216.836 92.0193 210.484 109.016C207.592 116.751 205.778 124.857 205.432 133.115C204.76 149.214 210.768 162.856 221.201 174.925C226.515 181.072 233.029 184.936 240.561 187.414C248.653 190.076 254.612 187.568 258.53 180.009C260.514 176.181 261.382 172.169 261.238 167.866C261.089 163.45 258.914 160.338 254.934 158.901C251.596 157.696 248.024 156.991 244.494 156.499C240.155 155.893 238.914 154.979 237.397 150.88C234.164 142.141 235.911 133.673 238.901 125.407C243.168 113.615 251.067 104.534 261.165 97.291C275.63 86.9151 291.63 80.8831 309.514 79.825C326.867 78.7975 342.352 83.9756 356.57 93.4526C372.23 103.892 384.088 117.902 393.27 134.156C395.817 138.667 397.41 143.796 398.913 148.801C401.427 157.168 402.372 165.774 402.281 174.553C402.113 190.841 396.848 205.438 387.997 218.838C376.999 235.49 362.318 248.438 345.939 259.542C339.249 264.078 332.303 268.243 325.41 272.474C322.834 274.056 321.167 276.072 320.471 279.076C319.152 284.769 317.576 290.402 316.194 296.081C315.162 300.327 316.105 301.589 320.491 301.723C339.144 302.294 357.7 301.255 375.921 297.052C390.729 293.636 405.023 288.716 417.624 279.859C425.204 274.531 431.722 268.216 435.507 259.539C438.316 253.1 439.466 246.326 439.009 239.342C438.427 230.465 436.473 221.851 433.468 213.481C432.723 211.408 431.647 209.386 432.788 206.378C434.224 207.167 435.553 207.658 436.591 208.505C443.06 213.782 447.29 220.621 449.717 228.51C454.385 243.675 452.944 258.708 448.413 273.657C442.346 293.679 430.659 310.543 418.417 327.063C408.444 340.519 396.707 352.278 382.876 361.798C370.97 369.992 358.181 376.532 344.522 381.312C338.316 383.484 332.096 385.624 325.85 387.68C324.524 388.117 323.059 388.13 321.658 388.338L321.285 387.194C325.452 385.141 329.548 382.928 333.797 381.063C350.592 373.694 366.722 365.168 381.361 354.025C398.757 340.781 412.497 324.256 424.326 306.014C429.798 297.577 435.013 289.011 438.599 279.569C439.716 276.628 440.696 273.63 441.566 270.609C441.921 269.378 441.814 268.014 441.108 266.304C439.958 267.709 438.74 269.066 437.667 270.529C429.442 281.736 418.354 289.237 405.888 294.847C387.762 303.003 368.592 306.732 348.857 308.21C336.72 309.12 324.621 309.751 312.476 308.549C305.424 307.851 305.165 307.413 307.244 300.493C315.268 273.777 320.572 246.649 318.544 218.571C318.05 211.721 316.631 204.936 315.585 198.129C315.485 197.479 315.01 196.887 314.29 195.406C313.704 197.308 313.229 198.344 313.079 199.425C312.445 204.029 311.797 208.637 311.354 213.262C310.201 225.281 307.428 236.971 303.096 248.163C300.521 254.816 296.783 261.08 293.07 267.216C287.336 276.691 281.177 285.908 275.186 295.227C274.901 295.67 274.496 296.038 274.147 296.441C273.846 296.301 273.544 296.161 273.242 296.021C273.703 294.74 274.047 293.401 274.643 292.186C279.389 282.505 284.196 272.856 288.95 263.179C289.875 261.297 290.522 259.272 291.525 257.438C293.107 254.546 292.601 252.124 290.637 249.582C280.368 236.285 267.45 226.737 251.466 221.383C236.143 216.25 220.398 215.35 204.429 216.468C201.588 216.667 198.741 216.78 195.897 216.948C193.872 217.067 192.538 216.332 191.743 214.318C190.148 210.278 188.017 206.422 186.72 202.299C184.578 195.487 179.527 192.63 173.139 191.464C162.513 189.523 152.302 191.175 142.335 195.191C126.355 201.629 112.845 211.679 100.493 223.443C83.0745 240.033 69.0924 259.21 57.9346 280.474C47.9168 299.564 40.4885 319.586 36.6214 340.843C35.7639 345.558 35.2816 350.34 34.6419 355.094C34.4026 356.877 34.3081 358.685 33.9725 360.449C33.2518 364.225 32.2855 364.764 28.7684 363.516C27.497 363.065 26.2688 362.488 24.9858 362.077C16.6586 359.411 9.03775 364.123 7.74661 372.807C6.97552 377.992 8.06418 382.878 11.9799 386.435C15.5195 389.65 15.2487 392.846 14.0223 396.943C13.0182 400.294 12.7033 404.031 12.9471 407.536C13.3295 413.048 17.2812 415.801 22.6662 414.688C24.9678 414.213 27.1479 413.12 29.3604 412.248C30.8594 411.657 32.3188 410.963 34.3432 410.074C34.9334 411.789 35.6937 413.092 35.7882 414.443C36.0707 418.482 37.5895 421.377 42.3177 422.036C42.1728 423.369 42.1971 424.538 41.8894 425.611C41.5196 426.897 40.8025 428.078 40.3472 429.344C38.3363 434.94 38.8905 436.233 44.2863 438.769C47.1898 440.133 47.4544 440.712 46.3396 443.584C45.7439 445.119 45.0655 446.622 44.4186 448.138C43.0789 451.278 42.0981 454.516 44.7029 457.409C47.4408 460.449 51.2117 461.085 55.0032 460.435C56.9692 460.099 58.8749 458.901 60.6033 457.777C66.6316 453.857 72.5376 449.748 78.5713 445.836C79.8103 445.033 81.401 444.77 82.7561 444.284C83.9518 446.469 82.6876 447.429 81.8581 448.347C78.7431 451.795 75.783 455.448 72.2938 458.481C58.9361 470.092 48.2911 483.962 38.1536 498.321C34.3585 503.697 30.1018 508.753 25.9494 513.869C22.9802 517.526 23.1206 519.109 26.6638 522.065C31.1527 525.811 41.6051 526.925 47.2123 522.267C56.4302 514.61 63.2341 505.34 68.0874 494.511C69.5567 491.233 70.8856 487.892 72.354 484.613C73.1152 482.915 74.1238 481.449 76.3912 481.752C78.6972 482.061 80.2961 483.089 80.8405 485.507C81.2013 487.11 81.572 488.742 82.2108 490.246C84.839 496.431 89.7777 497.28 94.5545 492.6C97.9726 489.25 101.553 486.059 105.152 482.902C106.474 481.742 108.061 480.883 109.634 479.813C112.2 481.947 114.769 483.141 118.023 482.306C119.737 481.866 120.732 482.982 121.116 484.749C121.495 486.489 121.901 488.291 122.705 489.855C124.014 492.406 125.759 492.852 128.311 491.569C129.512 490.967 130.555 490.036 131.774 489.488C135.322 487.894 138.776 489.847 139.366 493.708C139.501 494.595 139.487 495.508 139.65 496.389C140.254 499.658 142.068 501.935 145.43 502.459C151.487 503.402 157.564 504.228 163.65 504.959C167.176 505.381 170.736 505.523 174.342 506.212C172.818 507.957 170.757 508.479 168.848 508.818C160.853 510.239 152.79 511.017 144.689 509.788C142.944 509.524 141.225 508.853 139.592 508.145C136.898 506.978 134.919 505.076 133.685 502.298C132.333 499.258 131.504 498.739 128.511 499.5C122.994 500.902 119.291 498.805 116.399 494.212C113.871 490.199 109.323 489.347 105.58 492.17C103.569 493.686 101.845 495.61 100.107 497.458C97.233 500.516 93.9453 502.668 89.6193 502.92C85.6955 503.148 82.1847 502.249 79.3181 499.402C78.5848 498.673 77.8065 497.989 77.1407 497.37C74.7087 497.465 74.0896 499.206 73.2556 500.816C67.6105 511.726 60.2929 521.177 50.5576 528.902C41.2866 536.259 21.4966 533.013 16.1871 520.345C14.7979 517.03 14.7565 515.007 17.1904 512.561C24.7402 504.97 30.6938 496.128 37.0371 487.59C40.61 482.78 44.1847 477.971 47.8116 473.204C50.4946 469.675 50.2742 468.672 46.2487 466.986C37.5193 463.33 34.6428 458.066 36.6312 448.834C37.1495 446.428 37.1675 444.367 35.3365 442.629C32.1514 439.608 32.0452 435.818 32.2594 431.809C32.3682 429.792 32.3575 427.539 31.5801 425.749C29.6384 421.282 29.3262 421.302 24.3434 422.037C13.7317 423.602 6.45097 417.974 5.57192 407.244C5.33078 404.299 5.52242 401.201 6.18643 398.329C7.0331 394.664 6.46535 391.62 4.28885 388.605C1.12443 384.219 -0.356533 379.297 0.0726474 373.814C0.88962 363.357 9.39582 353.003 21.7593 353.695C22.507 353.737 23.2556 353.791 24.0042 353.812C26.1456 353.873 27.3099 352.869 27.6536 350.71C28.3365 346.425 29.1049 342.153 29.8822 337.884C32.8262 321.736 37.9629 306.301 44.6075 291.302C52.7898 272.831 63.0335 255.624 75.6462 239.872C89.703 222.315 105.637 206.758 125.255 195.401C136.768 188.737 148.857 183.637 162.452 183.23C170.699 182.982 178.551 184.297 185.785 188.583C188.78 190.357 190.786 192.742 192.03 195.949C193.326 199.296 194.836 202.559 196.197 205.88C197.17 208.253 198.796 209.225 201.427 209.211C211.167 209.157 220.909 209.295 230.651 209.341C234.053 209.357 234.721 208.527 233.773 205.301C232.631 201.418 231.541 197.506 230.089 193.737C229.485 192.167 228.262 190.553 226.876 189.609C217.212 183.027 210.237 174.17 204.897 163.947C197.296 149.398 196.555 133.908 200.294 118.373C207.244 89.491 222.375 65.4497 245.389 46.5991C259.048 35.4116 274.725 28.2468 291.907 24.099C303.867 21.2135 315.778 18.2146 328.033 16.8605C346.345 14.837 364.541 15.3697 382.645 19.0082C392.828 21.0552 402.608 24.3456 412.269 28.0318C414.769 28.9856 417.141 28.9658 419.73 28.7912C424.936 28.4394 430.202 28.0876 435.383 28.4925C441.632 28.981 447.858 30.0491 454.023 31.2349C464.637 33.2783 472.216 39.8374 477.142 49.0158C482.159 58.3624 486.146 68.2578 490.705 77.8564C492.105 80.804 493.825 83.6112 495.547 86.3905C496.488 87.9102 497.773 89.2112 498.846 90.6535C503.75 97.2451 502.918 96.6827 510.787 95.1316C527.035 91.9285 542.635 86.6073 557.443 79.2042C578.48 68.687 599.526 58.1681 620.293 47.1326C638.641 37.382 655.105 24.8773 670.245 10.6288C673.622 7.45092 677.19 4.44487 680.894 1.65654C684.624 -1.15157 686.319 -0.453361 687.35 4.24063C689.021 11.848 690.822 19.4545 691.931 27.1528C694.175 42.7275 695.767 58.3957 698.041 73.9649C700.855 93.2349 702.548 112.741 707.862 131.542C710.868 142.177 714.971 152.518 718.867 162.883C726.143 182.233 733.759 201.455 740.975 220.827C744.999 231.626 748.502 242.619 752.238 253.526C752.384 253.952 752.493 254.392 752.666 254.806C755.09 260.611 754.336 265.518 749.795 270.335C744.777 275.66 740.584 281.759 735.934 287.439C733.945 289.869 731.968 292.423 729.537 294.356C721.612 300.653 715.04 308.246 708.432 315.801C703.162 321.826 697.415 327.085 690.35 331.079C684.772 334.233 679.626 338.224 674.561 342.193C662.692 351.495 649.87 359.135 636.075 365.195C625.241 369.954 614.475 374.867 603.633 379.606C597.682 382.207 591.501 383.804 584.898 383.707C574.112 383.55 563.365 383.747 552.649 381.625C543.321 379.778 535.66 375.772 530.392 367.841C526.502 361.986 522.777 355.99 519.433 349.811C516.912 345.156 515.949 339.914 516.161 334.577C516.364 329.485 516.811 324.402 517.058 319.31C517.233 315.709 515.709 314.726 512.347 316.13C509.643 317.259 507.523 319.057 505.869 321.491C487.612 348.363 463.994 369.463 436.287 386.186C419.274 396.455 401.278 404.553 382.437 410.783C376.76 412.66 370.981 414.234 365.206 415.791C363.899 416.143 362.415 415.843 361.013 415.843C360.951 415.531 360.89 415.218 360.828 414.906Z" fill="black"/>
<path d="M649.176 420.322C646.148 429.781 640.203 437.357 637.552 446.857C640.285 446.408 641.054 444.606 642.099 443.33C647.226 437.073 652.348 430.805 657.229 424.358C659.807 420.953 662.764 419.19 667.135 419.579C672.484 420.056 677.86 420.302 683.229 420.43C685.28 420.479 687.344 419.695 689.403 419.685C704.097 419.611 718.791 419.624 733.485 419.655C734.77 419.658 736.054 419.98 737.702 420.202C737.401 421.599 737.364 422.64 736.958 423.509C735.18 427.309 733.238 431.033 731.468 434.836C730.243 437.466 728.208 438.635 725.41 438.681C723.312 438.715 721.213 438.729 719.114 438.741C716.316 438.757 714.325 439.887 713.028 442.508C707.251 454.185 701.391 465.823 695.534 477.461C689.744 488.967 683.892 500.442 678.146 511.97C677.1 514.068 675.673 515.367 673.328 515.374C667.333 515.392 661.337 515.35 655.342 515.284C654.784 515.278 654.229 514.932 653.141 514.563C653.641 512.975 653.927 511.399 654.607 510.016C659.172 500.742 663.809 491.504 668.444 482.265C674.757 469.68 681.125 457.121 687.393 444.513C689.484 440.306 688.532 438.941 683.684 438.73C676.687 438.428 676.316 437.779 679.496 431.418C680.892 428.626 681.53 426.493 681.596 423.871C680.246 425.104 679.054 425.968 678.137 427.063C669.092 437.86 660.096 448.7 651.079 459.521C649.015 461.997 647.936 464.801 647.318 468.004C644.734 481.393 641.914 494.736 639.178 508.097C639.118 508.391 639.047 508.682 638.975 508.973C637.453 515.155 637.134 515.42 630.833 515.44C626.335 515.456 621.835 515.517 617.34 515.403C613.219 515.297 612.405 514.289 613.35 510.48C615.081 503.505 616.98 496.573 618.706 489.597C619.116 487.941 619.12 486.185 619.311 484.476C618.966 484.346 618.622 484.216 618.276 484.086C617.203 485.914 616.03 487.692 615.075 489.581C611.494 496.666 607.924 503.759 604.476 510.91C602.946 514.085 600.832 515.718 597.112 515.503C592.628 515.243 588.119 515.467 583.621 515.426C582.308 515.414 580.997 515.211 579.018 515.036C579.437 513.151 579.484 511.519 580.143 510.193C587.807 494.762 595.568 479.379 603.296 463.98C609.542 451.529 615.78 439.074 622.019 426.619C622.355 425.95 622.696 425.28 622.976 424.586C624.531 420.728 627.346 419.291 631.484 419.564C635.664 419.839 639.878 419.571 644.074 419.657C645.628 419.688 647.175 420.049 649.176 420.322Z" fill="black"/>
<path d="M383.3 471.532C378.772 478.541 374.219 485.535 369.721 492.564C365.765 498.748 361.777 504.914 357.986 511.199C356.168 514.216 353.879 515.81 350.287 515.464C348.653 515.307 346.989 515.487 345.342 515.431C341.339 515.297 340.575 514.32 341.761 510.392C342.8 506.952 344.094 503.588 345.291 500.196C348.824 490.182 352.368 480.172 355.882 470.151C355.959 469.932 355.738 469.609 355.563 469.02C352.474 471.511 351.236 475.078 349.586 478.249C344.261 488.482 339.185 498.845 334.009 509.156C333.606 509.96 333.134 510.73 332.762 511.546C331.5 514.315 329.406 515.556 326.334 515.459C322.589 515.34 318.835 515.503 315.089 515.415C311.097 515.322 310.205 513.976 311.905 510.393C314.475 504.979 317.216 499.645 319.9 494.284C328.886 476.337 337.874 458.389 346.875 440.449C349.629 434.961 352.525 429.54 355.175 424.002C356.738 420.737 359.063 419.471 362.665 419.571C369.557 419.763 376.459 419.579 383.356 419.645C388.19 419.691 388.843 420.463 387.33 424.938C384.552 433.161 381.537 441.306 378.663 449.498C378.195 450.832 377.949 452.243 377.6 453.619C377.914 453.809 378.227 453.998 378.541 454.188C379.602 453.07 380.881 452.089 381.69 450.812C386.981 442.458 392.166 434.037 397.399 425.646C398.111 424.503 398.948 423.436 399.643 422.283C400.769 420.416 402.464 419.666 404.548 419.662C412.345 419.648 420.144 419.559 427.939 419.689C431.82 419.753 432.533 420.961 430.809 424.467C425.586 435.089 420.238 445.649 414.939 456.233C405.883 474.319 396.736 492.36 387.849 510.528C386.059 514.187 383.711 515.696 379.781 515.475C376.492 515.29 373.184 515.487 369.887 515.412C368.453 515.381 367.024 515.093 364.973 514.848C365.577 512.935 365.84 511.501 366.457 510.239C371.13 500.683 375.872 491.162 380.59 481.627C381.783 479.219 383.023 476.833 384.117 474.379C384.443 473.646 384.344 472.722 384.44 471.886C384.06 471.768 383.68 471.65 383.3 471.532Z" fill="black"/>
<path d="M264.529 455.955C268.111 456.981 269.014 456.987 270.948 454.9C274.649 450.907 277.122 446.149 278.7 440.951C279.216 439.251 279.026 437.596 277.09 436.839C275.304 436.141 273.871 436.891 272.784 438.322C272.247 439.03 271.805 439.822 271.402 440.619C269.651 444.083 267.868 447.533 266.227 451.049C265.502 452.603 265.09 454.302 264.529 455.955ZM243.82 497.083C246.049 498.646 248.023 498.238 249.719 496.821C250.951 495.791 252.1 494.5 252.863 493.095C255.351 488.511 257.675 483.837 259.989 479.161C260.44 478.25 260.843 477.147 260.754 476.179C260.656 475.118 260.212 473.545 259.468 473.217C258.435 472.76 256.869 472.981 255.747 473.438C254.908 473.78 254.244 474.87 253.785 475.772C250.611 482.012 247.494 488.28 244.413 494.567C244.049 495.309 244.015 496.213 243.82 497.083ZM281.53 463.511C282.288 464.537 282.621 465.219 283.152 465.669C286.668 468.652 286.881 472.471 285.427 476.336C281.566 486.598 276.729 496.39 270.14 505.213C265.078 511.99 257.779 514.457 249.757 514.99C243.485 515.406 237.182 515.354 230.891 515.435C225.947 515.499 221.001 515.484 216.056 515.427C214.453 515.409 212.852 515.151 210.529 514.936C211.096 512.979 211.317 511.413 211.979 510.063C216.528 500.793 221.158 491.562 225.783 482.329C235.035 463.86 244.321 445.407 253.55 426.926C257.179 419.658 257.126 419.599 265.085 419.632C273.476 419.666 281.873 419.59 290.252 419.941C293.313 420.07 296.394 421.09 299.345 422.067C302.318 423.051 303.962 425.464 304.063 428.564C304.146 431.081 304.349 433.867 303.43 436.093C300.986 442.017 298.172 447.817 295.097 453.443C293.127 457.047 289.862 459.53 285.954 461.087C284.499 461.666 283.18 462.592 281.53 463.511Z" fill="black"/>
<path d="M450.529 455.705C450.016 455.523 449.503 455.342 448.991 455.159C444.468 462.495 439.861 469.782 435.47 477.196C434.155 479.419 435.277 480.887 437.938 480.923C440.008 480.951 441.735 480.386 442.596 478.188C444.996 472.061 447.518 465.981 449.87 459.836C450.358 458.561 450.323 457.087 450.529 455.705ZM432.186 499.144C426.411 497.314 424.824 497.874 422.211 502.409C420.492 505.395 418.756 508.37 417.086 511.382C415.581 514.096 413.53 515.591 410.23 515.476C405.292 515.304 400.344 515.477 395.401 515.411C393.979 515.392 392.562 515.052 390.473 514.767C391.436 512.575 391.944 510.883 392.849 509.441C401.206 496.128 409.625 482.856 418.036 469.578C427.09 455.288 436.153 441.004 445.214 426.72C445.776 425.834 446.445 425.007 446.915 424.077C448.593 420.753 451.196 419.477 454.946 419.568C462.882 419.763 470.826 419.595 478.766 419.636C484.133 419.664 484.806 420.565 483.077 425.829C481.114 431.802 478.968 437.715 476.874 443.646C471.293 459.45 465.709 475.253 460.101 491.047C457.649 497.954 455.14 504.839 452.644 511.73C451.935 513.689 450.711 515.283 448.497 515.315C441.793 515.413 435.087 515.35 428.061 515.35C426.931 509.067 432.276 504.884 432.186 499.144Z" fill="black"/>
<path d="M574.079 453.777C573.673 453.608 573.267 453.44 572.862 453.273C572.496 453.675 572.064 454.035 571.774 454.486C568.314 459.874 564.855 465.264 561.441 470.681C560.091 472.823 558.753 474.985 557.595 477.233C556.49 479.375 557.251 480.568 559.662 480.864C562.258 481.182 563.682 480.505 564.857 477.691C567.269 471.916 569.486 466.06 571.75 460.224C572.576 458.095 573.305 455.927 574.079 453.777ZM550.062 515.023C549.402 511.353 551.391 509.007 552.206 506.357C552.732 504.647 553.564 503.029 554.068 501.313C554.598 499.512 553.779 498.452 551.898 498.205C549.025 497.83 546.604 498.287 545.051 501.155C543.127 504.707 540.945 508.119 539.012 511.666C537.564 514.324 535.503 515.524 532.461 515.457C527.371 515.347 522.276 515.467 517.183 515.405C515.915 515.39 514.651 515.05 513.337 514.852C512.946 511.036 515.393 508.805 516.893 506.417C534.007 479.168 551.353 452.064 568.47 424.816C570.809 421.091 573.47 419.376 577.923 419.547C585.402 419.834 592.9 419.622 600.39 419.627C601.438 419.628 602.495 419.585 603.532 419.705C606.23 420.015 606.888 420.993 606.012 423.643C604.555 428.043 602.99 432.407 601.454 436.779C598.183 446.097 594.927 455.42 591.616 464.724C587.05 477.552 582.447 490.365 577.845 503.18C576.683 506.415 575.606 509.693 574.191 512.816C573.721 513.852 572.354 515.104 571.334 515.164C564.344 515.571 557.335 515.756 550.062 515.023Z" fill="black"/>
<path d="M519.136 447.161C520.63 443.796 521.881 441.4 522.73 438.869C523.099 437.765 523.014 435.535 522.486 435.304C521.322 434.796 519.289 434.673 518.418 435.384C514.463 438.612 511.99 442.935 511.628 448.05C511.521 449.545 512.826 451.378 513.934 452.67C515.877 454.937 518.242 456.837 520.292 459.02C522.031 460.872 523.723 462.803 525.172 464.882C527.586 468.35 528.418 472.111 527.319 476.393C524.861 485.972 520.511 494.628 514.738 502.548C509.86 509.239 502.793 513.023 495.056 515.233C487.54 517.381 479.858 518.545 472.022 516.073C464.035 513.554 460.591 508.764 462.924 500.855C464.728 494.742 467.87 489.02 470.47 483.147C471.224 481.446 472.74 480.859 474.524 480.858C479.471 480.857 484.421 480.737 489.363 480.891C492.614 480.993 493.335 482.271 492.007 485.27C490.552 488.555 488.909 491.759 487.367 495.006C486.983 495.814 486.538 496.626 486.354 497.486C485.901 499.596 486.849 500.841 488.942 500.534C490.34 500.329 491.894 499.728 492.931 498.802C497.125 495.057 498.999 489.93 500.266 484.682C500.612 483.249 499.657 481.112 498.641 479.814C496.06 476.524 493.354 473.252 490.25 470.47C484.07 464.93 483.534 458.242 486.135 451.146C488.926 443.527 492.774 436.374 498.234 430.253C505.193 422.453 514.282 418.893 524.397 417.819C530.065 417.217 535.746 417.376 541.235 419.549C547.8 422.148 550.159 426.906 547.682 433.486C546.365 436.984 544.828 440.4 543.354 443.836C542.056 446.862 539.981 448.603 536.432 448.453C532.392 448.281 528.335 448.513 524.292 448.365C522.773 448.31 521.274 447.682 519.136 447.161Z" fill="black"/>
<path d="M276.207 514.45C276.768 512.888 277.117 511.491 277.745 510.235C287.78 490.161 297.851 470.104 307.912 450.042C312.338 441.213 316.858 432.428 321.121 423.522C322.496 420.647 324.438 419.554 327.458 419.61C332.099 419.696 336.743 419.58 341.385 419.645C346.533 419.717 347.138 420.611 344.908 425.146C340.222 434.68 335.438 444.166 330.68 453.663C321.631 471.722 312.543 489.761 303.53 507.838C299.755 515.41 299.824 515.464 291.299 515.439C286.958 515.427 282.618 515.341 278.278 515.249C277.865 515.24 277.458 514.945 276.207 514.45Z" fill="black"/>
<path d="M768.531 420.456C765.578 426.483 762.938 431.96 760.221 437.398C753.003 451.842 745.751 466.267 738.517 480.703C733.359 490.995 728.227 501.299 723.047 511.579C721.83 513.994 720.066 515.545 717.063 515.466C711.976 515.334 706.881 515.509 701.793 515.404C698.058 515.327 697.205 513.967 698.837 510.604C702.295 503.471 705.885 496.402 709.43 489.311C717.591 472.987 725.751 456.664 733.924 440.347C736.603 435 739.401 429.711 741.993 424.324C743.597 420.989 745.877 419.355 749.737 419.567C754.514 419.829 759.317 419.59 764.106 419.673C765.368 419.694 766.622 420.105 768.531 420.456Z" fill="black"/>
<path d="M56.3124 370.674C56.0785 369.441 55.6889 368.214 55.6367 366.973C55.2822 358.678 55.7159 350.402 58.8839 342.651C63.5284 331.287 71.7863 323.753 83.8673 320.707C94.6553 317.987 104.594 320.56 114.23 325.401C117.982 327.285 120.095 330.386 121.569 334.105C124.123 340.549 124.649 347.191 123.447 353.987C122.717 358.119 121.822 362.225 121.237 366.377C120.905 368.731 120.779 371.186 121.085 373.528C121.248 374.781 122.347 376.646 123.34 376.878C124.677 377.19 126.438 376.411 127.788 375.677C128.584 375.244 129.045 374.043 129.467 373.102C131.1 369.463 133.608 366.593 136.674 364.062C144.199 357.847 151.965 352.118 160.97 348.073C180.393 339.349 199.686 344.603 212.873 360.038C216.715 364.536 219.542 369.599 221.739 375.041C222.206 376.202 223.016 377.487 221.31 379.175C219.98 377.524 218.673 375.991 217.461 374.386C211.706 366.766 204.946 360.348 196.423 355.808C185.556 350.02 174.62 349.973 163.557 354.935C154.583 358.96 146.682 364.614 139.652 371.46C138.395 372.683 137.617 374.385 136.54 375.808C134.835 378.06 133.323 380.547 131.262 382.42C128.029 385.361 124.057 386.065 119.951 384.298C116.179 382.675 114.273 379.607 113.862 375.551C113.249 369.515 113.905 363.609 115.34 357.729C117.147 350.318 117.683 342.884 114.183 335.771C113.433 334.245 112.185 332.621 110.736 331.841C105.834 329.202 100.593 327.329 94.9747 326.946C83.8664 326.192 75.0182 330.54 68.7407 339.583C63.1415 347.65 58.9379 356.408 58.0426 366.429C57.9158 367.848 57.4434 369.236 57.1303 370.639C56.8577 370.651 56.585 370.662 56.3124 370.674Z" fill="black"/>
<path d="M127.129 305.94C127.129 304.216 126.919 302.462 127.162 300.772C129.057 287.594 131.317 274.509 136.091 261.971C143.265 243.131 155.153 228.226 172.47 217.804C176.559 215.343 180.85 213.211 185.088 211.006C186.744 210.146 188.489 209.556 189.712 211.777C191.03 214.173 190.612 216.134 188.353 217.478C183.345 220.457 178.07 223.051 173.328 226.402C157.862 237.328 147.101 252.118 139.967 269.456C136.512 277.857 134.178 286.723 131.388 295.395C130.258 298.91 129.267 302.469 128.212 306.009C127.851 305.986 127.49 305.963 127.129 305.94Z" fill="black"/>
<path d="M201.527 312.007C199.807 307.025 200.319 302.144 201.288 297.299C202.521 291.136 203.616 284.928 205.234 278.862C207.749 269.439 211.076 260.276 215.709 251.656C216.337 250.487 217.632 249.677 219.26 248.064C226.257 262.557 232.888 276.273 239.484 290.006C239.931 290.937 240.172 291.984 240.383 293.003C240.486 293.502 240.298 294.061 240.155 295.416C232.097 285.224 226.603 274.236 219.024 263.771C217.704 265.523 216.375 266.733 215.725 268.237C211.209 278.702 207.333 289.391 204.719 300.515C203.81 304.382 202.6 308.179 201.527 312.007Z" fill="black"/>
<path d="M129.715 428.416C130.729 427.216 131.776 426.043 132.751 424.812C135.813 420.946 138.991 417.158 141.835 413.135C143.279 411.094 144.252 408.672 145.173 406.319C146.952 401.766 144.943 397.167 140.336 395.519C139.088 395.073 137.213 395.146 136.107 395.796C133.694 397.214 131.36 398.933 129.403 400.932C124.689 405.745 120.252 410.828 115.611 415.714C114.32 417.073 112.705 418.124 110.578 418.792C110.763 418.323 110.881 417.814 111.141 417.391C115.215 410.77 119.172 404.069 123.463 397.59C125.172 395.009 127.451 392.722 129.785 390.655C134.103 386.834 138.98 386.576 143.864 389.697C145.495 390.738 146.998 392.015 148.421 393.335C153.307 397.869 154.223 401.816 151.028 407.776C148.997 411.566 146.401 415.145 143.568 418.391C139.851 422.65 135.536 426.343 130.656 429.257C130.342 428.976 130.029 428.696 129.715 428.416Z" fill="black"/>
</svg>
